<?xml version="1.0" encoding="UTF-8"?>
<svg version="1.1" xmlns="http://www.w3.org/2000/svg" width="128" height="128">
<path d="M0 0 C0.495 0.99 0.495 0.99 1 2 C-0.65 4.31 -2.3 6.62 -4 9 C-8 8 -8 8 -11 6 C-15.72322787 4.98282546 -20.31752716 4.6405724 -25 6 C-25.41746608 8.87364791 -25.41746608 8.87364791 -25 12 C-21.39705309 14.73877145 -17.95839658 15.60388475 -13.5625 16.4375 C-7.2936597 17.79751959 -3.48079753 19.17702351 0.8125 24.0625 C3.33318474 28.17519616 3.47393292 32.31237252 3 37 C1.35492949 42.19495951 -0.40512607 45.04615248 -5 48 C-11.75794549 51.25556679 -19.7654755 51.03349213 -26.9609375 49.27734375 C-32.04754249 47.39087013 -35.52992927 45.16408487 -39 41 C-37.47291037 37.56404834 -35.40072955 34.88087546 -33 32 C-29.29896173 33.23367942 -27.73190399 35.26809601 -25 38 C-22.21398777 38.92867074 -20.38933911 39.16342217 -17.5 39.1875 C-16.33984375 39.20876953 -16.33984375 39.20876953 -15.15625 39.23046875 C-12.70319944 39.13661528 -12.70319944 39.13661528 -10 37 C-9.7497843 33.91634129 -9.7497843 33.91634129 -10 31 C-15.39928851 28.08191125 -20.72462125 26.68852778 -26.66015625 25.2578125 C-31.18873025 23.55231445 -33.69527133 21.03221374 -36.2890625 16.9921875 C-38.13487295 11.81986151 -37.71079317 6.53531325 -35.4375 1.625 C-31.13028605 -3.0135381 -26.66555355 -5.52709514 -20.30859375 -6.03515625 C-12.8014661 -5.92083451 -5.78737017 -5.00529312 0 0 Z " fill="#0795AF" transform="translate(60,44)"/>
<path d="M0 0 C3.63 0 7.26 0 11 0 C11 14.85 11 29.7 11 45 C18.92 45 26.84 45 35 45 C35 47.97 35 50.94 35 54 C23.45 54 11.9 54 0 54 C0 36.18 0 18.36 0 0 Z " fill="#0D95AD" transform="translate(72,39)"/>
<path d="M0 0 C0.33 0.66 0.66 1.32 1 2 C-0.65 4.31 -2.3 6.62 -4 9 C-7.98300973 8.00424757 -11.26137967 6.65362053 -15 5 C-14.67 4.34 -14.34 3.68 -14 3 C-12.68 3 -11.36 3 -10 3 C-10 3.66 -10 4.32 -10 5 C-9.01 5 -8.02 5 -7 5 C-6.34 2.69 -5.68 0.38 -5 -2 C-6.32 -1.67 -7.64 -1.34 -9 -1 C-9 -1.66 -9 -2.32 -9 -3 C-15.27 -3 -21.54 -3 -28 -3 C-21.33647382 -9.66352618 -6.33935165 -5.48268251 0 0 Z " fill="#1B91A6" transform="translate(60,44)"/>
<path d="M0 0 C3.78105158 3.53711277 4.8983003 5.47450453 5.25 10.75 C5.15864236 16.27206155 3.56763657 20.43236343 -0.375 24.375 C-3.01408803 26.00872116 -4.93804116 26.65006185 -8 27 C-8 26.34 -8 25.68 -8 25 C-6.68 24.67 -5.36 24.34 -4 24 C-3.9175 23.21625 -3.835 22.4325 -3.75 21.625 C-3 19 -3 19 -1.0625 17.625 C1 17 1 17 3 18 C2.814375 16.948125 2.62875 15.89625 2.4375 14.8125 C2.04920669 11.42880118 2.11752515 9.23574112 3 6 C2.34 6 1.68 6 1 6 C0.67 4.02 0.34 2.04 0 0 Z " fill="#1392AB" transform="translate(58,66)"/>
<path d="M0 0 C0.8353125 0.52400391 0.8353125 0.52400391 1.6875 1.05859375 C6.93298776 4.18639304 10.89737784 5.6671297 17 6 C17 6.33 17 6.66 17 7 C15.93458984 7.07347656 15.93458984 7.07347656 14.84765625 7.1484375 C13.92855469 7.22320312 13.00945313 7.29796875 12.0625 7.375 C11.14597656 7.44460937 10.22945312 7.51421875 9.28515625 7.5859375 C8.15400391 7.79089844 8.15400391 7.79089844 7 8 C6.67 8.66 6.34 9.32 6 10 C5.01 9.67 4.02 9.34 3 9 C3.33 8.34 3.66 7.68 4 7 C3.01 5.824375 3.01 5.824375 2 4.625 C0 2 0 2 0 0 Z " fill="#158FA5" transform="translate(29,78)"/>
<path d="M0 0 C3.81314312 3.56713389 4.92513382 5.47772097 5.1875 10.8125 C5.15327125 14.51605059 4.3828833 17.54279174 3 21 C1.32520205 15.97560615 1.76384378 11.09914442 3 6 C2.34 6 1.68 6 1 6 C0.67 4.02 0.34 2.04 0 0 Z " fill="#2F8A98" transform="translate(58,66)"/>
<path d="M0 0 C0.66 0.33 1.32 0.66 2 1 C1.34 1.66 0.68 2.32 0 3 C-0.71706982 4.98248715 -1.38290413 6.98415349 -2 9 C-2.33 9.99 -2.66 10.98 -3 12 C-3.99 11.01 -4.98 10.02 -6 9 C-4.47291037 5.56404834 -2.40072955 2.88087546 0 0 Z " fill="#20909F" transform="translate(27,76)"/>
<path d="M0 0 C-1.0197307 3.77300358 -1.65872662 4.80206144 -5.125 6.8125 C-6.07375 7.204375 -7.0225 7.59625 -8 8 C-6.65580512 3.85539913 -4.87800266 0 0 0 Z " fill="#2898A7" transform="translate(32,41)"/>
<path d="M0 0 C3.86648272 1.04097612 7.49461443 2.03698408 11 4 C9.4375 4.75 9.4375 4.75 7 5 C4.49713591 3.86915563 2.32992278 2.47860484 0 1 C0 0.67 0 0.34 0 0 Z " fill="#1E8D9F" transform="translate(25,88)"/>
<path d="M0 0 C2 1.5625 2 1.5625 4 4 C4.25 7.75 4.25 7.75 4 11 C3.67 11 3.34 11 3 11 C3 9.35 3 7.7 3 6 C2.34 6 1.68 6 1 6 C0.67 4.02 0.34 2.04 0 0 Z " fill="#1D90A2" transform="translate(58,66)"/>
</svg>
